<?xml version="1.0" encoding="UTF-8" standalone="no"?>
<!DOCTYPE svg PUBLIC "-//W3C//DTD SVG 1.1//EN" "http://www.w3.org/Graphics/SVG/1.1/DTD/svg11.dtd">
<!-- Generated by Microsoft Visio, SVG Export cta_overview_1.svg cta overview -->
<svg xmlns="http://www.w3.org/2000/svg" xmlns:xlink="http://www.w3.org/1999/xlink" xmlns:ev="http://www.w3.org/2001/xml-events"
		xmlns:v="http://schemas.microsoft.com/visio/2003/SVGExtensions/" width="8.44279in" height="5.4664in"
		viewBox="0 0 607.881 393.581" xml:space="preserve" color-interpolation-filters="sRGB" class="st13">
	<v:documentProperties v:langID="2055" v:metric="true" v:viewMarkup="false">
		<v:userDefs>
			<v:ud v:nameU="msvNoAutoConnect" v:val="VT0(1):26"/>
		</v:userDefs>
	</v:documentProperties>

	<style type="text/css">
	<![CDATA[
		.st1 {fill:#dbeef3;stroke:none;stroke-linecap:round;stroke-linejoin:round;stroke-width:0.75}
		.st2 {fill:#000000;font-family:Calibri;font-size:1.00001em}
		.st3 {fill:none;stroke:#000000;stroke-linecap:round;stroke-linejoin:round;stroke-width:0.24}
		.st4 {fill:none;stroke:none;stroke-linecap:round;stroke-linejoin:round;stroke-width:0.75}
		.st5 {fill:#000000;font-family:Calibri;font-size:0.833336em}
		.st6 {fill:#ffffff;stroke:#000000;stroke-linecap:round;stroke-linejoin:round;stroke-width:0.75}
		.st7 {marker-end:url(#mrkr13-41);marker-start:url(#mrkr13-39);stroke:#0070c0;stroke-linecap:round;stroke-linejoin:round;stroke-width:0.75}
		.st8 {fill:#0070c0;fill-opacity:1;stroke:#0070c0;stroke-opacity:1;stroke-width:0.22935779816514}
		.st9 {marker-end:url(#mrkr13-61);stroke:#ffc000;stroke-linecap:round;stroke-linejoin:round;stroke-width:0.75}
		.st10 {fill:#ffc000;fill-opacity:1;stroke:#ffc000;stroke-opacity:1;stroke-width:0.22935779816514}
		.st11 {stroke:#ffc000;stroke-linecap:round;stroke-linejoin:round;stroke-width:0.75}
		.st12 {stroke:#7030a0;stroke-linecap:round;stroke-linejoin:round;stroke-width:0.75}
		.st13 {fill:none;fill-rule:evenodd;font-size:12px;overflow:visible;stroke-linecap:square;stroke-miterlimit:3}
	]]>
	</style>

	<defs id="Markers">
		<g id="lend13">
			<path d="M 3 1 L 0 0 L 3 -1 L 3 1 " style="stroke:none"/>
		</g>
		<marker id="mrkr13-39" class="st8" v:arrowType="13" v:arrowSize="2" v:setback="12.6" refX="12.6" orient="auto"
				markerUnits="strokeWidth" overflow="visible">
			<use xlink:href="#lend13" transform="scale(4.36) "/>
		</marker>
		<marker id="mrkr13-41" class="st8" v:arrowType="13" v:arrowSize="2" v:setback="13.08" refX="-13.08" orient="auto"
				markerUnits="strokeWidth" overflow="visible">
			<use xlink:href="#lend13" transform="scale(-4.36,-4.36) "/>
		</marker>
		<marker id="mrkr13-61" class="st10" v:arrowType="13" v:arrowSize="2" v:setback="13.08" refX="-13.08" orient="auto"
				markerUnits="strokeWidth" overflow="visible">
			<use xlink:href="#lend13" transform="scale(-4.36,-4.36) "/>
		</marker>
	</defs>
	<g v:mID="10" v:index="4" v:groupContext="foregroundPage">
		<title>cta_overview</title>
		<v:pageProperties v:drawingScale="0.0393701" v:pageScale="0.0393701" v:drawingUnits="24" v:shadowOffsetX="8.50394"
				v:shadowOffsetY="-8.50394"/>
		<g id="shape33-1" v:mID="33" v:groupContext="shape" transform="translate(237.714,-166.781)">
			<title>Sheet.33</title>
			<desc>network</desc>
			<v:textBlock v:margins="rect(4,4,4,4)" v:tabSpace="42.5197"/>
			<v:textRect cx="76" cy="383.581" width="152" height="20"/>
			<rect x="0" y="373.581" width="152" height="20" class="st1"/>
			<text x="55.58" y="387.18" class="st2" v:langID="1033"><v:paragraph v:horizAlign="1"/><v:tabList/>network</text>		</g>
		<g id="shape1-4" v:mID="1" v:groupContext="shape" transform="translate(188.454,-202.214)">
			<title>Rectangle</title>
			<v:userDefs>
				<v:ud v:nameU="visVersion" v:val="VT0(15):26"/>
			</v:userDefs>
			<rect x="0" y="237.676" width="212.598" height="155.906" class="st3"/>
		</g>
		<g id="shape2-6" v:mID="2" v:groupContext="shape" transform="translate(204.73,-237.647)">
			<title>Sheet.2</title>
			<desc>IOC</desc>
			<v:textBlock v:margins="rect(4,4,4,4)" v:tabSpace="42.5197"/>
			<v:textRect cx="20.2084" cy="383.581" width="40.42" height="20"/>
			<rect x="0" y="373.581" width="40.4169" height="20" class="st4"/>
			<text x="11.52" y="387.18" class="st2" v:langID="1033"><v:paragraph v:horizAlign="1"/><v:tabList/>IOC</text>		</g>
		<g id="shape3-9" v:mID="3" v:groupContext="shape" transform="translate(184.304,-260.167)">
			<title>Sheet.3</title>
			<desc>IFC1210</desc>
			<v:textBlock v:margins="rect(4,4,4,4)" v:tabSpace="42.5197"/>
			<v:textRect cx="30.4215" cy="383.581" width="60.85" height="20"/>
			<rect x="0" y="373.581" width="60.843" height="20" class="st4"/>
			<text x="10.79" y="387.18" class="st2" v:langID="1033"><v:paragraph v:horizAlign="1"/><v:tabList/>IFC1210</text>		</g>
		<g id="shape4-12" v:mID="4" v:groupContext="shape" transform="translate(182.235,-323.946)">
			<title>Sheet.4</title>
			<desc>VME-EVM-300</desc>
			<v:textBlock v:margins="rect(4,4,4,4)" v:tabSpace="42.5197"/>
			<v:textRect cx="48.7383" cy="383.581" width="97.48" height="20"/>
			<rect x="0" y="373.581" width="97.4766" height="20" class="st4"/>
			<text x="13.01" y="387.18" class="st2" v:langID="1033"><v:paragraph v:horizAlign="1"/><v:tabList/>VME-EVM-300</text>		</g>
		<g id="shape6-15" v:mID="6" v:groupContext="shape" transform="translate(181.367,-355.206)">
			<title>Sheet.6</title>
			<desc>VME crate</desc>
			<v:textBlock v:margins="rect(4,4,4,4)" v:tabSpace="42.5197"/>
			<v:textRect cx="34.084" cy="383.581" width="68.17" height="20"/>
			<rect x="0" y="373.581" width="68.168" height="20" class="st4"/>
			<text x="8.77" y="387.18" class="st2" v:langID="1033"><v:paragraph v:horizAlign="1"/><v:tabList/>VME crate</text>		</g>
		<g id="shape7-18" v:mID="7" v:groupContext="shape" transform="translate(195.54,-209.301)">
			<title>Rectangle.7</title>
			<v:userDefs>
				<v:ud v:nameU="visVersion" v:val="VT0(15):26"/>
			</v:userDefs>
			<rect x="0" y="339.935" width="191.339" height="53.6457" class="st3"/>
		</g>
		<g id="shape8-20" v:mID="8" v:groupContext="shape" transform="translate(217.668,-216.387)">
			<title>Rectangle.8</title>
			<v:userDefs>
				<v:ud v:nameU="visVersion" v:val="VT0(15):26"/>
			</v:userDefs>
			<rect x="0" y="368.324" width="155.038" height="25.2567" class="st3"/>
		</g>
		<g id="shape9-22" v:mID="9" v:groupContext="shape" transform="translate(294.753,-219.016)">
			<title>Rectangle.9</title>
			<desc>CTA</desc>
			<v:userDefs>
				<v:ud v:nameU="visVersion" v:val="VT0(15):26"/>
			</v:userDefs>
			<v:textBlock v:margins="rect(4,4,4,4)" v:tabSpace="42.5197"/>
			<v:textRect cx="34.084" cy="383.581" width="68.17" height="20"/>
			<rect x="0" y="373.581" width="68.168" height="20" class="st3"/>
			<text x="26.09" y="386.58" class="st5" v:langID="1033"><v:paragraph v:horizAlign="1"/><v:tabList/>CTA</text>		</g>
		<g id="shape10-25" v:mID="10" v:groupContext="shape" transform="translate(195.54,-301.427)">
			<title>Rectangle.10</title>
			<v:userDefs>
				<v:ud v:nameU="visVersion" v:val="VT0(15):26"/>
			</v:userDefs>
			<rect x="0" y="368.324" width="191.339" height="25.2567" class="st3"/>
		</g>
		<g id="shape11-27" v:mID="11" v:groupContext="shape" transform="translate(221.052,-74.655)">
			<title>Actor</title>
			<v:userDefs>
				<v:ud v:nameU="visVersion" v:prompt="" v:val="VT0(15):26"/>
			</v:userDefs>
			<path d="M6.8 393.58 L6.8 358.15 L6.8 372.32 L0 372.32 L0 343.97 L3.4 340.43 L30.61 340.43 L34.02 343.97 L34.02 372.32
						 L27.21 372.32 L27.21 358.15 L27.21 393.58 L17.01 393.58 L17.01 365.23 L17.01 393.58 L6.8 393.58 ZM24.09
						 329.8 A7.08661 7.08661 -180 1 0 9.92 329.8 A7.08661 7.08661 -180 1 0 24.09 329.8 Z" class="st6"/>
		</g>
		<g id="shape12-29" v:mID="12" v:groupContext="shape" transform="translate(284.832,-74.655)">
			<title>Actor.12</title>
			<v:userDefs>
				<v:ud v:nameU="visVersion" v:prompt="" v:val="VT0(15):26"/>
			</v:userDefs>
			<path d="M6.8 393.58 L6.8 358.15 L6.8 372.32 L0 372.32 L0 343.97 L3.4 340.43 L30.61 340.43 L34.02 343.97 L34.02 372.32
						 L27.21 372.32 L27.21 358.15 L27.21 393.58 L17.01 393.58 L17.01 365.23 L17.01 393.58 L6.8 393.58 ZM24.09
						 329.8 A7.08661 7.08661 -180 1 0 9.92 329.8 A7.08661 7.08661 -180 1 0 24.09 329.8 Z" class="st6"/>
		</g>
		<g id="shape13-31" v:mID="13" v:groupContext="shape" transform="translate(348.611,-74.655)">
			<title>Actor.13</title>
			<v:userDefs>
				<v:ud v:nameU="visVersion" v:prompt="" v:val="VT0(15):26"/>
			</v:userDefs>
			<path d="M6.8 393.58 L6.8 358.15 L6.8 372.32 L0 372.32 L0 343.97 L3.4 340.43 L30.61 340.43 L34.02 343.97 L34.02 372.32
						 L27.21 372.32 L27.21 358.15 L27.21 393.58 L17.01 393.58 L17.01 365.23 L17.01 393.58 L6.8 393.58 ZM24.09
						 329.8 A7.08661 7.08661 -180 1 0 9.92 329.8 A7.08661 7.08661 -180 1 0 24.09 329.8 Z" class="st6"/>
		</g>
		<g id="shape15-33" v:mID="15" v:groupContext="shape" transform="translate(681.216,-0.748414) rotate(63.549)">
			<title>Sheet.15</title>
			<path d="M9.45 393.58 L9.81 393.58 L72.28 393.58" class="st7"/>
		</g>
		<g id="shape16-42" v:mID="16" v:groupContext="shape" transform="translate(699.03,308.218) rotate(109.851)">
			<title>Sheet.16</title>
			<path d="M9.45 393.58 L9.81 393.58 L68.34 393.58" class="st7"/>
		</g>
		<g id="shape17-49" v:mID="17" v:groupContext="shape" transform="translate(577.71,479.472) rotate(140.778)">
			<title>Sheet.17</title>
			<path d="M9.45 393.58 L9.81 393.58 L106.47 393.58" class="st7"/>
		</g>
		<g id="shape18-56" v:mID="18" v:groupContext="shape" transform="translate(82.3046,-314.055)">
			<title>Sheet.18</title>
			<path d="M0 393.58 L103.43 393.58" class="st9"/>
		</g>
		<g id="shape19-62" v:mID="19" v:groupContext="shape" transform="translate(386.879,-314.055)">
			<title>Sheet.19</title>
			<path d="M0 393.58 L124.99 393.58" class="st9"/>
		</g>
		<g id="shape20-67" v:mID="20" v:groupContext="shape" transform="translate(76.8039,-315.6)">
			<title>Sheet.20</title>
			<desc>timing stream in</desc>
			<v:textBlock v:margins="rect(4,4,4,4)" v:tabSpace="42.5197"/>
			<v:textRect cx="48.7383" cy="383.581" width="97.48" height="20"/>
			<rect x="0" y="373.581" width="97.4766" height="20" class="st4"/>
			<text x="8.86" y="387.18" class="st2" v:langID="1033"><v:paragraph v:horizAlign="1"/><v:tabList/>timing stream in</text>		</g>
		<g id="shape22-70" v:mID="22" v:groupContext="shape" transform="translate(408.139,-315.6)">
			<title>Sheet.22</title>
			<desc>timing stream out</desc>
			<v:textBlock v:margins="rect(4,4,4,4)" v:tabSpace="42.5197"/>
			<v:textRect cx="61.6535" cy="383.581" width="123.31" height="20"/>
			<rect x="0" y="373.581" width="123.307" height="20" class="st4"/>
			<text x="17.98" y="387.18" class="st2" v:langID="1033"><v:paragraph v:horizAlign="1"/><v:tabList/>timing stream out</text>		</g>
		<g id="shape23-73" v:mID="23" v:groupContext="shape" transform="translate(736.049,352.033) rotate(135)">
			<title>Sheet.23</title>
			<path d="M0 393.58 L13.51 393.58" class="st11"/>
		</g>
		<g id="shape24-76" v:mID="24" v:groupContext="shape" transform="translate(441.021,-294.34)">
			<title>Sheet.24</title>
			<desc>8</desc>
			<v:textBlock v:margins="rect(4,4,4,4)" v:tabSpace="42.5197"/>
			<v:textRect cx="8.3622" cy="388.337" width="16.73" height="10.4882"/>
			<rect x="0" y="383.093" width="16.7244" height="10.4882" class="st4"/>
			<text x="5.32" y="391.94" class="st2" v:langID="1033"><v:paragraph v:horizAlign="1"/><v:tabList/>8</text>		</g>
		<g id="shape25-79" v:mID="25" v:groupContext="shape" transform="translate(418.427,352.033) rotate(135)">
			<title>Sheet.25</title>
			<path d="M0 393.58 L13.51 393.58" class="st11"/>
		</g>
		<g id="shape26-82" v:mID="26" v:groupContext="shape" transform="translate(123.399,-294.34)">
			<title>Sheet.26</title>
			<desc>1</desc>
			<v:textBlock v:margins="rect(4,4,4,4)" v:tabSpace="42.5197"/>
			<v:textRect cx="8.3622" cy="388.337" width="16.73" height="10.4882"/>
			<rect x="0" y="383.093" width="16.7244" height="10.4882" class="st4"/>
			<text x="5.32" y="391.94" class="st2" v:langID="1033"><v:paragraph v:horizAlign="1"/><v:tabList/>1</text>		</g>
		<g id="shape27-85" v:mID="27" v:groupContext="shape" transform="translate(722.418,89.4774) rotate(90)">
			<title>Sheet.27</title>
			<path d="M0 393.58 L65.09 393.58" class="st12"/>
		</g>
		<g id="shape28-88" v:mID="28" v:groupContext="shape" transform="translate(325.798,-270.167)">
			<title>Sheet.28</title>
			<desc>VME bus</desc>
			<v:textBlock v:margins="rect(4,4,4,4)" v:tabSpace="42.5197"/>
			<v:textRect cx="34.084" cy="383.581" width="68.17" height="20"/>
			<rect x="0" y="373.581" width="68.168" height="20" class="st4"/>
			<text x="12.61" y="387.18" class="st2" v:langID="1033"><v:paragraph v:horizAlign="1"/><v:tabList/>VME bus</text>		</g>
		<g id="shape29-91" v:mID="29" v:groupContext="shape" transform="translate(239.614,-304.104)">
			<title>Rectangle.29</title>
			<desc>HW event sequencer</desc>
			<v:userDefs>
				<v:ud v:nameU="visVersion" v:val="VT0(15):26"/>
			</v:userDefs>
			<v:textBlock v:margins="rect(4,4,4,4)" v:tabSpace="42.5197"/>
			<v:textRect cx="61.6535" cy="383.581" width="123.31" height="20"/>
			<rect x="0" y="373.581" width="123.307" height="20" class="st3"/>
			<text x="19.14" y="386.58" class="st5" v:langID="1033"><v:paragraph v:horizAlign="1"/><v:tabList/>HW event sequencer</text>		</g>
		<g id="shape30-94" v:mID="30" v:groupContext="shape" transform="translate(18.375,-305.6)">
			<title>Sheet.30</title>
			<desc>master</desc>
			<v:textBlock v:margins="rect(4,4,4,4)" v:tabSpace="42.5197"/>
			<v:textRect cx="34.084" cy="383.581" width="68.17" height="20"/>
			<rect x="0" y="373.581" width="68.168" height="20" class="st4"/>
			<text x="16.98" y="387.18" class="st2" v:langID="1033"><v:paragraph v:horizAlign="1"/><v:tabList/>master</text>		</g>
		<g id="shape31-97" v:mID="31" v:groupContext="shape" transform="translate(521.338,-311.435)">
			<title>Sheet.31</title>
			<desc>event</desc>
			<v:textBlock v:margins="rect(4,4,4,4)" v:tabSpace="42.5197"/>
			<v:textRect cx="34.084" cy="383.581" width="68.17" height="20"/>
			<rect x="0" y="373.581" width="68.168" height="20" class="st4"/>
			<text x="4" y="387.18" class="st2" v:langID="1033"><v:paragraph/><v:tabList/>event</text>		</g>
		<g id="shape35-100" v:mID="35" v:groupContext="shape" transform="translate(219.118,-50.8947)">
			<title>Sheet.35</title>
			<desc>user</desc>
			<v:textBlock v:margins="rect(4,4,4,4)" v:tabSpace="42.5197"/>
			<v:textRect cx="20.2084" cy="383.581" width="40.42" height="20"/>
			<rect x="0" y="373.581" width="40.4169" height="20" class="st4"/>
			<text x="4" y="387.18" class="st2" v:langID="1033"><v:paragraph/><v:tabList/>user</text>		</g>
		<g id="shape36-103" v:mID="36" v:groupContext="shape" transform="translate(275.811,-50.8947)">
			<title>Sheet.36</title>
			<desc>user</desc>
			<v:textBlock v:margins="rect(4,4,4,4)" v:tabSpace="42.5197"/>
			<v:textRect cx="30.4215" cy="383.581" width="60.85" height="20"/>
			<rect x="0" y="373.581" width="60.843" height="20" class="st4"/>
			<text x="4" y="387.18" class="st2" v:langID="1033"><v:paragraph/><v:tabList/>user</text>		</g>
		<g id="shape38-106" v:mID="38" v:groupContext="shape" transform="translate(346.677,-50.4817)">
			<title>Sheet.38</title>
			<desc>user</desc>
			<v:textBlock v:margins="rect(4,4,4,4)" v:tabSpace="42.5197"/>
			<v:textRect cx="30.4215" cy="383.581" width="60.85" height="20"/>
			<rect x="0" y="373.581" width="60.843" height="20" class="st4"/>
			<text x="4" y="387.18" class="st2" v:langID="1033"><v:paragraph/><v:tabList/>user</text>		</g>
		<g id="shape40-109" v:mID="40" v:groupContext="shape" transform="translate(219.118,-36.7215)">
			<title>Sheet.40</title>
			<desc>GUI</desc>
			<v:textBlock v:margins="rect(4,4,4,4)" v:tabSpace="42.5197"/>
			<v:textRect cx="20.2084" cy="383.581" width="40.42" height="20"/>
			<rect x="0" y="373.581" width="40.4169" height="20" class="st4"/>
			<text x="4" y="387.18" class="st2" v:langID="1033"><v:paragraph/><v:tabList/>GUI</text>		</g>
		<g id="shape41-112" v:mID="41" v:groupContext="shape" transform="translate(275.811,-18.375)">
			<title>Sheet.41</title>
			<desc>access</desc>
			<v:textBlock v:margins="rect(4,4,4,4)" v:tabSpace="42.5197"/>
			<v:textRect cx="30.4215" cy="381.321" width="60.85" height="24.5197"/>
			<rect x="0" y="369.061" width="60.843" height="24.5197" class="st4"/>
			<text x="4" y="384.92" class="st2" v:langID="1033"><v:paragraph/><v:tabList/>access</text>		</g>
		<g id="shape42-115" v:mID="42" v:groupContext="shape" transform="translate(275.811,-32.5482)">
			<title>Sheet.42</title>
			<desc>channel</desc>
			<v:textBlock v:margins="rect(4,4,4,4)" v:tabSpace="42.5197"/>
			<v:textRect cx="30.4215" cy="380.953" width="60.85" height="25.2567"/>
			<rect x="0" y="368.324" width="60.843" height="25.2567" class="st4"/>
			<text x="4" y="384.55" class="st2" v:langID="1033"><v:paragraph/><v:tabList/>channel</text>		</g>
		<g id="shape43-118" v:mID="43" v:groupContext="shape" transform="translate(346.677,-32.1732)">
			<title>Sheet.43</title>
			<desc>python</desc>
			<v:textBlock v:margins="rect(4,4,4,4)" v:tabSpace="42.5197"/>
			<v:textRect cx="30.4215" cy="381.321" width="60.85" height="24.5197"/>
			<rect x="0" y="369.061" width="60.843" height="24.5197" class="st4"/>
			<text x="4" y="384.92" class="st2" v:langID="1033"><v:paragraph/><v:tabList/>python</text>		</g>
		<g id="shape44-121" v:mID="44" v:groupContext="shape" transform="translate(346.677,-18)">
			<title>Sheet.44</title>
			<desc>library</desc>
			<v:textBlock v:margins="rect(4,4,4,4)" v:tabSpace="42.5197"/>
			<v:textRect cx="30.4215" cy="383.581" width="60.85" height="20"/>
			<rect x="0" y="373.581" width="60.843" height="20" class="st4"/>
			<text x="4" y="387.18" class="st2" v:langID="1033"><v:paragraph/><v:tabList/>library</text>		</g>
		<g id="shape45-124" v:mID="45" v:groupContext="shape" transform="translate(521.338,-295.98)">
			<title>Sheet.45</title>
			<desc>receivers</desc>
			<v:textBlock v:margins="rect(4,4,4,4)" v:tabSpace="42.5197"/>
			<v:textRect cx="34.084" cy="383.581" width="68.17" height="20"/>
			<rect x="0" y="373.581" width="68.168" height="20" class="st4"/>
			<text x="4" y="387.18" class="st2" v:langID="1033"><v:paragraph/><v:tabList/>receivers</text>		</g>
	</g>
</svg>
